<?xml version="1.0" encoding="UTF-8"?>
<svg width="284px" height="283px" viewBox="0 0 284 283" version="1.1" xmlns="http://www.w3.org/2000/svg" xmlns:xlink="http://www.w3.org/1999/xlink">
    <!-- Generator: Sketch 53.2 (72643) - https://sketchapp.com -->
    <title>Eva</title>
    <desc>Created with Sketch.</desc>
    <defs>
        <radialGradient cx="50%" cy="0%" fx="50%" fy="0%" r="333.783026%" gradientTransform="translate(0.500000,0.000000),scale(0.687620,1.000000),rotate(22.110915),translate(-0.500000,-0.000000)" id="radialGradient-1">
            <stop stop-color="#4D1001" offset="0%"></stop>
            <stop stop-color="#11100F" offset="100%"></stop>
        </radialGradient>
        <radialGradient cx="50%" cy="0%" fx="50%" fy="0%" r="100%" gradientTransform="translate(0.500000,0.000000),scale(0.566667,1.000000),rotate(90.000000),translate(-0.500000,-0.000000)" id="radialGradient-2">
            <stop stop-color="#9C8365" offset="0%"></stop>
            <stop stop-color="#F9E7C8" offset="100%"></stop>
        </radialGradient>
        <radialGradient cx="50%" cy="0%" fx="50%" fy="0%" r="109.555272%" gradientTransform="translate(0.500000,0.000000),scale(1.000000,0.912781),rotate(90.000000),translate(-0.500000,-0.000000)" id="radialGradient-3">
            <stop stop-color="#F1CB9E" offset="0%"></stop>
            <stop stop-color="#F9E7C8" offset="100%"></stop>
        </radialGradient>
        <radialGradient cx="50%" cy="0%" fx="50%" fy="0%" r="110%" gradientTransform="translate(0.500000,0.000000),scale(1.000000,0.909091),rotate(90.000000),translate(-0.500000,-0.000000)" id="radialGradient-4">
            <stop stop-color="#875B53" offset="0%"></stop>
            <stop stop-color="#3D271C" offset="100%"></stop>
        </radialGradient>
        <linearGradient x1="50%" y1="0%" x2="50%" y2="100%" id="linearGradient-5">
            <stop stop-color="#C6B285" offset="0%"></stop>
            <stop stop-color="#947A4D" offset="100%"></stop>
        </linearGradient>
        <radialGradient cx="50%" cy="0%" fx="50%" fy="0%" r="340.498756%" gradientTransform="translate(0.500000,0.000000),scale(1.000000,0.472420),rotate(51.355522),translate(-0.500000,-0.000000)" id="radialGradient-6">
            <stop stop-color="#4D1001" offset="0%"></stop>
            <stop stop-color="#11100F" offset="100%"></stop>
        </radialGradient>
        <radialGradient cx="50%" cy="0%" fx="50%" fy="0%" r="297.254117%" gradientTransform="translate(0.500000,0.000000),scale(1.000000,0.604848),rotate(44.329212),translate(-0.500000,-0.000000)" id="radialGradient-7">
            <stop stop-color="#4D1001" offset="0%"></stop>
            <stop stop-color="#11100F" offset="100%"></stop>
        </radialGradient>
        <radialGradient cx="50%" cy="0%" fx="50%" fy="0%" r="769.218304%" gradientTransform="translate(0.500000,0.000000),scale(1.000000,0.169952),rotate(73.952616),translate(-0.500000,-0.000000)" id="radialGradient-8">
            <stop stop-color="#4D1001" offset="0%"></stop>
            <stop stop-color="#11100F" offset="100%"></stop>
        </radialGradient>
        <path d="M42.9168145,196.924552 L49.9955691,304.955719 C50.2022777,308.110365 52.8213187,310.56341 55.9827298,310.56341 L231.870807,310.56341 C234.990843,310.56341 237.5902,308.172173 237.849974,305.062971 L246.954294,196.094871 C247.230194,192.792669 244.776891,189.892043 241.474689,189.616143 C241.298803,189.601448 241.122355,189.59452 240.945859,189.595381 L48.8747073,190.532314 C45.5610382,190.548478 42.8878824,193.247841 42.9040466,196.56151 C42.9046374,196.682625 42.9088954,196.803695 42.9168145,196.924552 Z" id="path-9"></path>
        <filter x="-4.2%" y="-3.7%" width="108.3%" height="114.9%" filterUnits="objectBoundingBox" id="filter-10">
            <feOffset dx="0" dy="5" in="SourceAlpha" result="shadowOffsetOuter1"></feOffset>
            <feGaussianBlur stdDeviation="2" in="shadowOffsetOuter1" result="shadowBlurOuter1"></feGaussianBlur>
            <feColorMatrix values="0 0 0 0 0   0 0 0 0 0   0 0 0 0 0  0 0 0 0.5 0" type="matrix" in="shadowBlurOuter1"></feColorMatrix>
        </filter>
        <ellipse id="path-11" cx="14.5" cy="14" rx="14.5" ry="14"></ellipse>
        <linearGradient x1="50%" y1="0%" x2="50%" y2="100%" id="linearGradient-13">
            <stop stop-color="#D46D56" stop-opacity="0.01" offset="0%"></stop>
            <stop stop-color="#5D2F52" offset="69.2567568%"></stop>
            <stop stop-color="#5D2F52" offset="100%"></stop>
        </linearGradient>
        <rect id="path-14" x="23" y="11" width="29" height="29"></rect>
        <rect id="path-15" x="0" y="0" width="73.9902974" height="51.9372074"></rect>
        <rect id="path-17" x="0" y="0" width="73.9902974" height="51.9372074"></rect>
        <path d="M41.2514846,32.9041168 C41.7527071,33.7166168 42.4039599,34.3134651 43.5563473,34.3134651 C44.5250705,34.3134651 45.1428475,33.8325785 45.1428475,33.1694389 C45.1428475,32.373551 44.5082492,32.091704 43.4394589,31.6275953 L42.8549819,31.378798 C41.1681511,30.6659007 40.0491515,29.7706718 40.0491515,27.8806027 C40.0491515,26.1397282 41.3852031,24.8133181 43.4728468,24.8133181 C44.9592713,24.8133181 46.0280615,25.327394 46.7962114,26.6702852 L44.9757499,27.830845 C44.5749458,27.1180349 44.140833,26.8361792 43.4728468,26.8361792 C42.7881271,26.8361792 42.3538473,27.2672208 42.3538473,27.830845 C42.3538473,28.5272087 42.7881271,28.8091517 43.7900625,29.2401933 L44.3745394,29.4889034 C46.3619316,30.3343745 47.4809311,31.1964664 47.4809311,33.136206 C47.4809311,35.225306 45.827576,36.3692537 43.6063983,36.3692537 C41.4353245,36.3692624 40.0324093,35.341451 39.3478565,33.9983852 L41.2514846,32.9041168 Z" id="path-19"></path>
        <filter x="-86.1%" y="-43.3%" width="272.1%" height="221.1%" filterUnits="objectBoundingBox" id="filter-20">
            <feOffset dx="0" dy="2" in="SourceAlpha" result="shadowOffsetOuter1"></feOffset>
            <feGaussianBlur stdDeviation="2" in="shadowOffsetOuter1" result="shadowBlurOuter1"></feGaussianBlur>
            <feColorMatrix values="0 0 0 0 0.364705882   0 0 0 0 0.184313725   0 0 0 0 0.321568627  0 0 0 1 0" type="matrix" in="shadowBlurOuter1"></feColorMatrix>
        </filter>
        <filter x="-150.0%" y="-92.3%" width="400.0%" height="284.6%" filterUnits="objectBoundingBox" id="filter-21">
            <feOffset dx="0" dy="2" in="SourceAlpha" result="shadowOffsetOuter1"></feOffset>
            <feGaussianBlur stdDeviation="2" in="shadowOffsetOuter1" result="shadowBlurOuter1"></feGaussianBlur>
            <feColorMatrix values="0 0 0 0 0.364705882   0 0 0 0 0.184313725   0 0 0 0 0.321568627  0 0 0 1 0" type="matrix" in="shadowBlurOuter1" result="shadowMatrixOuter1"></feColorMatrix>
            <feMerge>
                <feMergeNode in="shadowMatrixOuter1"></feMergeNode>
                <feMergeNode in="SourceGraphic"></feMergeNode>
            </feMerge>
        </filter>
    </defs>
    <g id="Eva" stroke="none" stroke-width="1" fill="none" fill-rule="evenodd">
        <rect id="Rectangle-path" fill-rule="nonzero" x="0.2129" y="0" width="283.4648" height="283.3701"></rect>
        <path d="M54.5,94.3723169 C69.4351935,142.902633 78.7685268,170.674174 82.5,177.686939 C86.2314732,184.699705 96.3981398,193.575599 113,204.314623 C156,206.187008 178.833333,206.2488 181.5,204.5 C183.050374,203.483264 198.780776,192.289245 204.5,174.314623 C207.245283,165.686628 211.245283,146.915087 216.5,118 C181.166667,167.333333 162.333333,192.8744 160,194.6232 C156.5,197.2464 117.5,192 113,185.348758 C110.635243,181.853521 99.3690291,143.169944 76.5,107.5 C72.4044702,101.112002 65.0711369,96.7361073 54.5,94.3723169 Z" id="Path-25" fill="url(#radialGradient-1)"></path>
        <g id="cara" transform="translate(71.436404, 52.000000)">
            <path d="M42.563596,140 L42.563596,153.5 C52.1914688,167.166667 62.1914688,174 72.563596,174 C82.9357232,174 92.9357232,167.166667 102.563596,153.5 L102.563596,143.6232 C91.7967038,146.8744 81.7967038,148.5 72.563596,148.5 C63.3304881,148.5 53.3304881,145.666667 42.563596,140 Z" id="Path-15" fill="url(#radialGradient-2)"></path>
            <path d="M1.06359597,60 C3.33066907e-15,76.5 2.13259178,87.4534519 8.06359597,102 C13.977775,116.505282 24.8269516,128.031602 28.563596,131.5 C45.4774344,147.199628 62.954789,152.5 75.563596,152.5 C88.0258213,152.5 100.536014,146.122488 111.563596,137 C120.305965,129.767939 127.805965,118.101272 134.063596,102 C138.021199,86.0360493 140,74.3693826 140,67 C140,59.6306174 138.021199,51.1306174 134.063596,41.5 L98.563596,16.25 C78.6810689,5.41666667 61.8477355,-4.26325641e-14 48.063596,-4.26325641e-14 C34.2794564,-4.29852913e-14 20.9461231,9.0779382 8.06359597,27.2338146 C4.10599329,38.0779382 1.77265995,49 1.06359597,60 Z" id="Path-3" fill="url(#radialGradient-3)"></path>
        </g>
        <path d="M127.5,176.314623 C135.055556,179.438208 141.055556,181 145.5,181 C149.944444,181 155.944444,179.438208 163.5,176.314623" id="Path-21" stroke="#E76B66" stroke-width="2"></path>
        <g id="eyes" transform="translate(83.000000, 103.000000)">
            <ellipse id="Oval" fill="url(#radialGradient-4)" cx="20" cy="22" rx="10" ry="11"></ellipse>
            <ellipse id="Oval" fill="#FFFFFF" cx="21" cy="18" rx="2" ry="3"></ellipse>
            <ellipse id="Oval" fill="#000000" cx="20" cy="23" rx="3" ry="4"></ellipse>
            <ellipse id="Oval" fill="url(#radialGradient-4)" cx="97" cy="22" rx="10" ry="11"></ellipse>
            <ellipse id="Oval" fill="#FFFFFF" cx="98" cy="18" rx="2" ry="3"></ellipse>
            <ellipse id="Oval" fill="#000000" cx="97" cy="23" rx="3" ry="4"></ellipse>
            <path d="M0,6 C5.96305838,3.39849549 10.6894265,1.80329156 14.1791045,1.21438823 C17.6687824,0.625484891 25.6090809,1.24982614 38,3.08741196" id="Path-5" stroke="#422B20" stroke-width="4"></path>
            <path d="M79,2.75659602 C88.3328717,0.125934587 96.0841155,-0.621866738 102.253731,0.513192047 C108.423347,1.64825083 113.33877,3.14385348 117,5" id="Path-6" stroke="#422B20" stroke-width="4"></path>
            <path d="M1,21.0447212 C9.32981338,14.3445085 15.99648,11.3668691 21,12.111803 C26.00352,12.8567369 32.6701866,17.8194692 41,27" id="Path-7" stroke="#000000" stroke-width="2"></path>
            <path d="M118,18.5831995 C109.08635,12.7788565 102.253017,10.3065897 97.5,11.1663989 C92.746983,12.0262082 85.9136497,16.9707419 77,26" id="Path-8" stroke="#000000" stroke-width="2"></path>
            <polyline id="Path-10" stroke="url(#linearGradient-5)" points="52 54 55.9130435 59 66.7826087 59 72 54"></polyline>
        </g>
        <g id="ropa" transform="translate(29.000000, 204.500000)">
            <path d="M85,1.42108547e-14 C41.6666667,14.3333333 18.1666667,24.8333333 14.5,31.5 C12.2103199,35.6630547 1.85987057,46.3873071 1,58.8692537 C0.655255998,63.8735838 0.321922665,72.0838326 -4.68958206e-13,83.5 L165.5,83.5 L232,83.5 C231.615766,71.6083289 230.949099,63.398086 230,58.8692711 C228.080924,49.7120217 219.889146,43.071001 217.975462,39.2436328 C214.642129,32.5769661 190.316975,19.9180343 145,1.26683729 C133.222222,14.4074868 123.555556,20.9778116 116,20.9778116 C108.444444,20.9778116 98.1111111,13.9852077 85,1.42108547e-14 Z" id="Path-26" fill="#DDDDDD"></path>
            <path d="M85,-1.42108547e-14 L78,1.26683729 C92.0297249,17.7556124 105.363058,26 118,26 C130.636942,26 142.303608,17.7556124 153,1.26683729 L145,-1.57772181e-29 C134.333333,12.6518744 125.166667,18.9778116 117.5,18.9778116 C109.833333,18.9778116 99,12.6518744 85,-1.42108547e-14 Z" id="Path-27" fill="#AF0404"></path>
        </g>
        <g id="hair" transform="translate(49.088709, 6.477812)">
            <path d="M50.9112914,12.2372688 C59.577958,34.4717792 63.9112914,47.7334191 63.9112914,52.0221884 C63.9112914,64.6410905 41.725665,62.4746866 36.9112914,68.5221884 C26.0776452,82.1307075 26.7371792,94.2919237 23.1485523,104.522188 C19.6929657,114.373189 22.1138787,128.706523 30.4112914,147.522188 C12.6102385,118.78556 2.77690514,97.2429994 0.911291374,82.8945053 C-1.88712927,61.3717643 1.3908395,56.5217332 15.9112914,36.0022332 C25.5915926,22.3225665 37.2582593,14.4009117 50.9112914,12.2372688 Z" id="Path-23" fill="url(#radialGradient-6)"></path>
            <path d="M50.9112914,13.0558073 L70.4112914,2.52218843 C88.7446247,-0.840729475 102.911291,-0.840729475 112.911291,2.52218843 C127.911291,7.56656528 154.403055,19.9074026 167.411291,36.0022332 C180.419528,52.0970637 189.502886,111.997872 177.411291,150.522188 C169.350228,176.205066 157.183562,198.871733 140.911291,218.522188 C151.401154,172.000667 157.401154,142.334 158.911291,129.522188 C161.176498,110.304471 157.847695,101.737269 151.911291,91.2372688 C145.974887,80.7372688 129.808702,63.9593957 108.911291,55.9658508 C88.0138812,47.9723059 76.0426543,59.2871571 64.9112914,52.0221884 C57.4903828,47.178876 52.8237161,34.1900822 50.9112914,13.0558073 Z" id="Path-24" fill="url(#radialGradient-7)"></path>
            <path d="M22.5573452,38.4613508 C31.7102615,53.6338837 38.1015361,110.102138 29.5935919,146.418858 C23.9216291,170.630005 15.3608622,191.997782 3.91129137,210.522188 C12.9041765,164.781143 17.9319041,135.871798 18.9944741,123.794153 C20.5883291,105.677687 15.8281631,100.429508 11.6511628,90.5311997 C7.47416243,80.6328913 13.4044289,23.2888179 22.5573452,38.4613508 Z" id="Path-24" fill="url(#radialGradient-8)" transform="translate(18.748181, 123.221791) scale(-1, 1) translate(-18.748181, -123.221791) "></path>
        </g>
        <g id="computer">
            <use fill="black" fill-opacity="1" filter="url(#filter-10)" xlink:href="#path-9"></use>
            <use fill="#453F3F" fill-rule="evenodd" xlink:href="#path-9"></use>
        </g>
        <g id="LimaJS-logo" transform="translate(131.000000, 239.000000)">
            <mask id="mask-12" fill="white">
                <use xlink:href="#path-11"></use>
            </mask>
            <use id="Mask" fill="#D8D8D8" xlink:href="#path-11"></use>
            <g mask="url(#mask-12)">
                <g transform="translate(-23.000000, -12.000000)">
                    <g id="Rectangle-path" fill-rule="nonzero">
                        <use fill="#D46D56" xlink:href="#path-14"></use>
                        <use fill="url(#linearGradient-13)" xlink:href="#path-14"></use>
                    </g>
                    <g id="Group" stroke-width="1" fill-rule="evenodd">
                        <g id="J">
                            <mask id="mask-16" fill="white">
                                <use xlink:href="#path-15"></use>
                            </mask>
                            <g id="SVGID_1_"></g>
                            <path d="M32.9847969,33.1031564 C33.35209,33.7497624 33.6862941,34.2966872 34.4877439,34.2966872 C35.2560608,34.2966872 35.7403741,33.998394 35.7403741,32.8379215 L35.7403741,24.9460403 L38.078405,24.9460403 L38.078405,32.8709013 C38.078405,35.2750027 36.6589672,36.3692711 34.5880306,36.3692711 C32.7176147,36.3692624 31.6319591,35.407655 31.0808261,34.2470953 L32.9847969,33.1031564 Z" id="Shape" fill="#FFFFFF" fill-rule="nonzero" mask="url(#mask-16)"></path>
                        </g>
                        <g id="S">
                            <mask id="mask-18" fill="white">
                                <use xlink:href="#path-17"></use>
                            </mask>
                            <g id="SVGID_1_"></g>
                            <g id="Shape" fill-rule="nonzero" mask="url(#mask-18)">
                                <use fill="black" fill-opacity="1" filter="url(#filter-20)" xlink:href="#path-19"></use>
                                <use fill="#FFFFFF" xlink:href="#path-19"></use>
                            </g>
                        </g>
                        <g id="retablo" transform="translate(25.694444, 14.274510)" fill="#FFFFFF" fill-rule="nonzero">
                            <path d="M2.25589934,15.7398884 L2.28967212,15.7398884 L2.28967212,14.4028628 C2.27847962,14.4018131 2.26718434,14.4008442 2.25589934,14.3997944 L2.25589934,15.7398884 Z" id="Shape"></path>
                            <path d="M3.13499132,13.6188588 L3.13499132,14.7569136 L3.16881549,14.7569136 L3.16881549,13.6206173 C3.16058299,13.6201776 3.15346049,13.6210569 3.1445291,13.619738 C3.14106549,13.6192984 3.13836244,13.6192984 3.13499132,13.6188588" id="Shape"></path>
                            <path d="M3.42545978,15.8296078 L3.45923256,15.8296078 L3.45923256,13.3153649 C3.44577895,13.3418232 3.43468922,13.3695106 3.42545978,13.397198 L3.42545978,15.8296078 Z" id="Shape"></path>
                            <path d="M6.29813044,14.7569136 L6.33195461,14.7569136 L6.33195461,13.643397 C6.32091628,13.6499645 6.30982655,13.6563615 6.29813044,13.6621484 L6.29813044,14.7569136 Z" id="Shape"></path>
                            <path d="M5.05297124,15.7398884 L5.08679541,15.7398884 L5.08679541,14.423274 C5.07560291,14.4206452 5.06430763,14.4181959 5.05297124,14.415298 L5.05297124,15.7398884 Z" id="Shape"></path>
                            <path d="M6.85029041,16.034805 L6.88411457,16.034805 L6.88411457,13.1734199 C6.87322013,13.1793772 6.86207902,13.1849847 6.85029041,13.1901525 L6.85029041,16.034805 Z" id="Shape"></path>
                            <polygon id="Shape" points="0.923971624 3.10482808 0.936080555 3.08840219 0.0465300267 3.08840219 0.0465300267 3.12195749 0.931402933 3.12195749"></polygon>
                            <polygon id="Shape" points="7.2424903 3.12195749 8.94283771 3.12195749 8.94283771 3.08840219 7.30775817 3.08840219"></polygon>
                            <polygon id="Shape" points="7.58517852 1.69810128 6.8803439 1.69810128 6.8803439 1.59382939 6.85024482 1.59382939 6.85024482 1.69810128 6.32813834 1.69810128 6.32813834 0.610684119 6.29817603 0.610684119 6.29817603 1.69810128 5.08307033 1.69810128 5.08307033 0.512468284 5.05297124 0.512468284 5.05297124 1.69810128 3.45546768 1.69810128 3.45546768 0.512468284 3.42545978 0.512468284 3.42545978 1.69810128 3.16495363 1.69810128 3.16495363 0.0209853694 3.13499132 0.0209853694 3.13499132 1.69810128 2.28586165 1.69810128 2.28586165 0.610684119 2.25589934 0.610684119 2.25589934 1.69810128 1.89379853 1.69810128 1.89379853 1.0039512 1.86379063 1.0039512 1.86379063 1.69810128 0.68693565 1.69810128 0.68693565 1.72762794 1.86379063 1.72762794 1.86379063 2.57321541 1.89379853 2.57457017 1.89379853 1.72762794 2.25589934 1.72762794 2.25589934 2.1583439 2.28586165 2.13692788 2.28586165 1.72762794 3.13499132 1.72762794 3.13499132 1.83701384 3.16495363 1.84095252 3.16495363 1.72762794 3.37314883 1.72762794 3.39309027 1.71272555 3.42545978 1.72000179 3.45546768 1.72674869 3.45938849 1.72762794 5.05297124 1.72762794 5.05297124 2.1733719 5.08307033 2.17981375 5.08307033 1.72762794 6.29817603 1.72762794 6.29817603 2.4045519 6.32813834 2.38956876 6.32813834 1.72762794 6.85024482 1.72762794 6.85024482 2.49479168 6.8803439 2.50188848 6.8803439 1.72762794 7.58517852 1.72762794"></polygon>
                            <polygon id="Rectangle-path" points="0.919567548 8.62313861 1.86148373 8.62313861 1.86148373 8.65669391 0.919567548 8.65669391"></polygon>
                            <polygon id="Rectangle-path" points="6.86752375 8.62313861 9.21647402 8.62313861 9.21647402 8.65669391 6.86752375 8.65669391"></polygon>
                            <path d="M0.841871612,11.1484661 L1.76945403,11.1484661 C1.77564527,11.1307453 1.77756009,11.1189893 1.77756009,11.1189893 L1.77756009,11.1149516 L0.841871612,11.1149516 L0.84188073,11.1484661 L0.841871612,11.1484661 Z" id="Shape"></path>
                            <path d="M8.30047168,11.1149157 L7.29208403,11.1149157 C7.29537569,11.1261212 7.29764611,11.1372247 7.3005001,11.14842 L8.30047168,11.14842 L8.30047168,11.1149157 Z" id="Shape"></path>
                            <polygon id="Shape" points="1.20668963 12.2872613 0.0425636223 12.2872613 0.0425636223 12.3208166 1.22009335 12.3208166 1.2135465 12.3043907"></polygon>
                            <path d="M7.38349369,12.3209063 L8.79997421,12.3209063 L8.79997421,12.287351 L7.38892812,12.287351 C7.38892812,12.2925306 7.38803454,12.30498 7.38349369,12.3209063" id="Shape"></path>
                            <g id="Clipped" filter="url(#filter-21)" transform="translate(0.820635, 1.614949)">
                                <path d="M3.34493066,10.9941105 L3.34001027,10.9941105 C3.28113826,10.9865557 3.2257767,10.9823912 3.17576714,10.9823912 C2.91625262,10.9823912 2.82437659,11.090588 2.79304149,11.1818332 C2.70015837,11.4503633 3.02147987,11.919857 3.1213839,11.9860885 C3.13726725,11.9967667 3.155395,12.001999 3.17547939,12.001999 C3.35911634,12.001999 3.70095385,11.4949447 3.78917555,11.2790849 C3.81910072,11.2047914 3.79872859,11.1523881 3.77568045,11.1218752 C3.68886869,11.0053226 3.43007352,10.9941105 3.34493066,10.9941105 M3.7152834,11.2535107 C3.61284725,11.5040479 3.28913749,11.9287199 3.17547939,11.9287199 L3.16676081,11.9269046 C3.09778905,11.8807481 2.78530123,11.4433156 2.8681997,11.2039905 C2.90261365,11.1041493 3.00335212,11.0556436 3.17573836,11.0556436 C3.2220936,11.0556436 3.2735131,11.0593009 3.3291624,11.0668557 L3.34067208,11.0671227 C3.45165417,11.0671227 3.65425332,11.0874647 3.71088095,11.1633333 C3.7287785,11.1875728 3.73018844,11.216751 3.7152834,11.2535107 M3.31063465,6.86581355 L4.03381503,6.93704179 L4.03381503,4.43378957 L3.31063465,4.33294495 L3.31063465,6.86581355 Z M3.35551429,4.38380689 L3.98902658,4.47217153 L3.98902658,6.88815368 L3.35551429,6.82581664 L3.35551429,4.38380689 Z" id="Shape"></path>
                                <path d="M6.51686625,9.76697134 C6.54763096,9.6208274 6.50804898,9.46254442 6.39915066,9.29603417 C6.30186889,9.14700126 6.32831159,8.90701979 6.32858513,8.90460634 L6.33005316,8.89229683 L6.32074351,8.88380041 C6.2611289,8.82978035 6.22627014,8.60421679 6.29447406,8.45942761 C6.35484547,8.33120063 6.32127236,8.23385507 6.30253452,8.19552694 L6.39955186,8.09498738 L6.40983716,8.08430179 L6.41870002,8.0750607 L6.39025132,8.05972765 C6.27079417,7.99555136 6.27235337,7.84331547 6.30997495,7.73244022 C6.3457273,7.62673282 6.30115768,7.55318085 6.26523208,7.52185083 L6.26523208,7.34473575 L6.06964731,7.15417172 L6.06964731,6.29960334 L6.11996138,6.21456729 L6.06964731,6.1370228 L6.06964731,3.12594977 C6.11479138,3.05805012 6.11194651,3.00429025 6.10539966,2.97682714 C6.16144906,2.92114727 6.13256269,2.78573377 6.11769096,2.730664 C6.22694488,2.65268886 6.21305791,2.53488728 6.18491923,2.46930239 L6.38522721,2.26580981 L6.18519278,2.23343904 L6.18519278,2.11349317 L6.17632991,2.10613618 C6.09489553,2.03836214 6.11342365,1.87644552 6.12134734,1.82725237 C6.23287169,1.78974966 6.24525417,1.65779932 6.2459198,1.61005066 L6.60837621,1.44550526 L6.60837621,1.2848178 L6.94955082,1.07243402 L5.52968746,0.735896524 L5.42545765,0.788032472 L4.06939414,0.498543832 L4.10621331,0.478787618 L3.99508104,0.395330625 L2.57829051,0.0739557076 L2.56698398,0.0714615081 L2.38573298,0.206480244 C2.31988154,0.197804378 1.95578386,0.149526365 1.95578386,0.149526365 L1.94594535,0.148342068 L1.20072635,0.681356097 L1.07717513,0.815585302 L1.1969879,0.832362831 L1.19097903,0.855797541 L1.30237572,0.868241622 L1.35945547,0.906489006 L1.29601124,0.945606668 L0.803547939,0.92278205 L0.198529938,1.33794964 L0.0653225772,1.49504832 L0.218617268,1.5816096 L0.334326859,1.69366914 L0.408630834,1.83157684 L0.635472693,1.83157684 L0.732973296,1.87696589 C0.715256689,1.90513779 0.694020469,1.95249169 0.710624659,1.99989045 C0.717837132,2.02052592 0.734486912,2.04177147 0.755768723,2.06888468 C0.804523584,2.13096154 0.871077114,2.21563871 0.852959308,2.33786346 L0.840540359,2.36099312 L0.837649899,2.49342794 L0.625014151,2.65534456 L0.702308887,2.69849959 L0.784317717,2.79991841 C0.772163195,2.82887984 0.757118213,2.89248192 0.810003605,2.97296023 C0.866545383,3.0588217 0.869262598,3.12308772 0.869663798,3.12300697 C0.868815808,3.1278249 0.857418094,3.20939779 0.910577031,3.27103502 L0.910577031,3.34116868 C0.91013024,3.35014959 0.907549798,3.42523576 0.953450671,3.44937926 C0.967301173,3.4670809 1.03323467,3.56459692 1.03323467,3.8141694 L1.03323467,5.029984 L0.975671654,5.07239437 L0.975671654,5.19138025 L1.03323467,5.15173324 L1.03323467,5.18257877 C1.01845411,5.19112006 0.995038649,5.20549311 0.982884127,5.21731813 C0.976246099,5.22397531 0.954526615,5.24819955 0.958173884,5.28013966 C0.959824273,5.29463831 0.967483536,5.31557882 0.994901876,5.33279598 L1.00313558,5.33603485 C1.00322677,5.33603485 1.01025688,5.33817914 1.01025688,5.35154733 L1.01025688,5.40823205 C1.00593486,5.41037635 1.0014852,5.41335503 0.997035529,5.41730269 C0.982254973,5.43049144 0.973392111,5.4511269 0.970766078,5.47859001 C0.951891464,5.48647635 0.929980499,5.50206958 0.919695202,5.52875213 C0.907276253,5.5614728 0.897346565,5.6375728 0.944496627,5.69929976 C0.943293029,5.74441965 0.956869985,5.8153877 1.01408651,5.83532335 L1.01408651,6.45367848 L0.946949415,6.48899204 L0.946949415,6.67815644 L1.01600132,6.63855429 L1.01600132,7.41150493 L0.928248046,7.4681089 L0.928248046,7.5151129 L0.783013818,7.63400906 L0.783013818,7.70813523 L0.702518605,7.7561082 L0.702518605,7.84486761 L0.810751295,7.87680772 C0.787107877,7.92337209 0.760756363,8.02115728 0.849129676,8.15376256 L0.849129676,8.37144876 L0.929889317,8.49459762 C0.917515959,8.53183117 0.888620475,8.64634902 0.9441319,8.78763017 L0.9441319,8.95112585 C0.904103129,8.97937849 0.779804222,9.08119207 0.809812123,9.23666684 C0.819477384,9.27070638 0.857135431,9.33203857 0.932652123,9.34346882 L0.93291655,9.4999933 C0.932734186,9.50091741 0.916394424,9.59203644 0.773795347,9.67084597 C0.628561119,9.75105512 0.61699016,9.80148639 0.603449676,9.85979504 C0.60153486,9.868121 0.599528863,9.87666229 0.596994011,9.88555348 C0.59236198,9.90211568 0.571171351,9.9170091 0.546679944,9.93435187 C0.498773073,9.96808636 0.434034059,10.0136459 0.427943121,10.1172987 L0.242370104,10.1958032 L0.242370104,10.409147 L0.386619569,10.7325406 L0.403761731,10.7316613 C0.500952316,10.7264935 0.617154287,10.7396374 0.62890761,10.7660956 C0.645201781,10.8027191 0.789278002,11.1137583 0.99488364,11.1376775 L0.99488364,12.5520681 L0.996935229,12.5617937 C1.00045484,12.5697697 1.0847341,12.7595442 1.24995536,12.7838133 L1.28713014,12.7895105 C1.45502302,12.8150088 1.68115366,12.8497033 1.73684745,12.7531472 C1.75728127,12.7540265 1.78146266,12.7498186 1.80251652,12.7313275 C1.85011337,12.6895362 1.85749909,12.5979775 1.82491075,12.4515644 C1.87570808,12.3804169 1.99445402,12.2173609 2.02579317,12.1891531 C2.03545844,12.180567 2.0465826,12.1734701 2.05753353,12.1664631 C2.0923467,12.1438538 2.13549389,12.1158165 2.13429029,12.0459878 C2.15116803,12.0347729 2.202941,12.0111139 2.31958976,12.0292552 C2.48779266,12.0558929 2.5449636,11.9246423 2.57928439,11.846398 C2.58356081,11.8366725 2.58756369,11.8273865 2.59139332,11.8193207 C2.60078504,11.7998696 2.60853548,11.7720117 2.61748041,11.7398563 C2.64228183,11.6503163 2.67620143,11.5277327 2.76435591,11.5277327 C2.86208447,11.5277327 3.01381083,11.431706 3.10463693,11.2700495 L3.97215796,11.296777 L3.97215796,12.7037208 L4.11886021,12.7836249 C4.25589721,12.8469758 4.40197942,12.8636187 4.5181358,12.8636187 C4.64444983,12.8636187 4.73544917,12.8438177 4.74034563,12.8425885 C4.85231677,12.8366311 4.85806122,12.7151959 4.86318563,12.6078646 C4.86425246,12.584385 4.86545606,12.5604658 4.86746205,12.5371567 C4.87405449,12.4627704 4.98117477,12.3699826 5.05939955,12.3022534 C5.11603251,12.2531858 5.14594923,12.2264674 5.15387292,12.2033377 C5.1618878,12.1793288 5.23200653,12.1458635 5.28655143,12.1294807 C5.56740022,12.1172161 5.72994985,11.8510365 5.73533869,11.7612274 C5.73881271,11.7014743 5.79807171,11.659683 5.81592509,11.6484681 C5.95710173,11.646889 6.0717992,11.6018588 6.15669849,11.5141491 C6.30914519,11.3567005 6.31791687,11.1131303 6.31724213,11.0495192 C6.38162553,11.0088674 6.38883801,10.9350014 6.38073195,10.8825245 L6.44738578,10.8825245 L6.44738578,10.8217217 C6.56309537,10.7923744 6.58704881,10.7193877 6.59181761,10.6854738 C6.66750755,10.6462215 6.68224251,10.5705253 6.68482296,10.5338928 C6.79096759,10.5036664 6.85494067,10.4227484 6.87555686,10.392522 L7.11063243,10.4110939 L7.11063243,10.2789282 L7.18249273,10.2789282 L7.18249273,10.1846511 L7.24104051,10.1846511 L7.24104051,10.035349 C7.30528714,9.97541644 7.31160603,9.88083424 7.31187958,9.87663537 L7.31325642,9.85328141 L6.51686625,9.76697134 Z M6.24923881,8.43879215 C6.17760646,8.59111776 6.20538041,8.82886521 6.27791546,8.91077903 C6.27332902,8.96326489 6.26202249,9.17660866 6.35729825,9.32249242 C6.4605433,9.48059596 6.49665126,9.62880345 6.46579537,9.76390293 L5.90406133,9.70345 C5.92832478,9.52733977 5.92053786,9.43736018 5.80401675,9.25739202 C5.68420399,9.07234574 5.74008014,8.89032301 5.7406637,8.88852862 L5.74257852,8.88243667 L5.73874889,8.87739444 C5.68923722,8.81378338 5.6968053,8.57065276 5.73491925,8.38358779 C5.75860826,8.26679107 5.71056462,8.19910675 5.67454784,8.16594645 L6.24923881,8.20243534 L6.25106244,8.20523458 C6.25373407,8.20911046 6.31379546,8.30149454 6.24923881,8.43879215 L6.24923881,8.43879215 Z M5.63135496,7.34582135 L5.63135496,7.49652304 L5.53987246,7.53800929 L5.53987246,7.38905713 L5.63135496,7.34582135 Z M5.53986334,7.36106468 L5.53986334,2.9721707 L5.63134584,2.93852592 L5.63134584,7.31808908 L5.63104778,7.31808908 L5.53986334,7.36106468 Z M5.63135496,7.52425531 L5.63135496,8.02616362 L5.53987246,8.05897401 L5.53987246,7.56577745 L5.63135496,7.52425531 Z M5.63235306,8.05236169 L5.63235306,8.14234128 L5.53986334,8.17077336 L5.53986334,8.08543226 L5.63235306,8.05236169 Z M5.63323341,8.16442123 C5.65429639,8.17686531 5.73919568,8.23692348 5.71030019,8.37873397 C5.6774839,8.54069545 5.65794365,8.8017879 5.71510547,8.88717386 C5.70571375,8.92147359 5.6675998,9.09246083 5.78295378,9.27067049 C5.8958185,9.44480689 5.90312216,9.52760893 5.8792599,9.70077636 L5.64471319,9.67554726 L5.53986334,9.69027022 L5.53986334,8.19689068 L5.63323341,8.16442123 Z M6.25070683,8.17795988 L5.64681037,8.13945231 L5.64681037,8.04723871 L6.33472166,8.0908244 L6.25070683,8.17795988 Z M6.26259693,7.7168739 C6.22483858,7.82832335 6.22172929,7.97591178 6.31584705,8.06502109 L5.64681037,8.02257484 L5.64681037,8.01573822 L5.64600797,8.01608813 L5.64600797,7.51697906 L6.21535569,7.5448818 L6.21535569,7.54667619 L6.22608777,7.55395243 C6.22693576,7.55448178 6.30030969,7.60564875 6.26259693,7.7168739 L6.26259693,7.7168739 Z M6.2153648,7.52013719 L5.64601709,7.4923152 L5.64601709,7.34358734 L6.2153648,7.36627738 L6.2153648,7.52013719 Z M6.190071,7.34069837 L5.64600797,7.31896833 L5.64600797,3.02995897 C5.648634,3.1790816 5.66742655,3.44048806 5.76287557,3.53821941 C5.78825144,3.56423804 5.81785814,3.5774268 5.85072003,3.5774268 C5.89337483,3.5774268 5.93032166,3.56152852 5.96046633,3.53011775 C5.98655342,3.50321987 6.0056104,3.46681174 6.01967974,3.42676997 L6.01967974,6.15138688 L6.06144096,6.21569775 L6.01967974,6.2863159 L6.01967974,7.1747085 L6.190071,7.34069837 Z M5.64600797,2.94470344 L5.64600797,2.93375285 L5.64621352,2.93375285 C5.64611075,2.93684226 5.64611075,2.94072697 5.64600797,2.94470344 L5.64600797,2.94470344 Z M5.671165,2.93647135 L6.0534808,2.97800246 L6.05405524,2.97909704 C6.05503088,2.98107087 6.07703303,3.02903486 6.02413852,3.1045158 L6.01968885,3.11077821 L6.01968885,3.32258779 C6.0077167,3.39482986 5.98509451,3.46903678 5.94235765,3.51324153 C5.91662617,3.53992408 5.88674592,3.55284368 5.85072914,3.55284368 C5.82455088,3.55284368 5.80166427,3.542508 5.78087484,3.52117273 C5.66595853,3.4036403 5.66942343,3.01076799 5.671165,2.93647135 L5.671165,2.93647135 Z M6.07555589,2.6994237 L6.05952614,2.70928386 L6.06500616,2.72724569 C6.08833956,2.80482606 6.10356691,2.92434128 6.06389375,2.94677114 L6.05303401,2.95325785 L5.6348838,2.90783291 L5.63159214,2.90748301 L5.53987246,2.94546123 L5.53987246,2.47574425 C5.53987246,2.47548406 5.53978128,2.47539434 5.53978128,2.47513416 L5.63670743,2.40657058 L6.13175118,2.4736807 L6.13290918,2.47591471 C6.13601848,2.48165676 6.20770554,2.61815586 6.07555589,2.6994237 L6.07555589,2.6994237 Z M6.17484365,2.28140304 L6.28307634,2.29901496 L6.13508843,2.44927702 L5.63034295,2.38080317 L5.53448362,2.44857721 C5.52228351,2.40003901 5.48234592,2.36981254 5.46035289,2.35750304 L5.46035289,2.28968414 L5.62010325,2.19014943 L6.13527079,2.27496118 L6.13527079,2.2750509 L6.17414155,2.28131332 L6.17484365,2.28140304 Z M3.29723094,10.7079754 C3.29536172,10.7030677 3.29179651,10.6974603 3.28529526,10.6929025 L3.28529526,10.6668839 L3.3783006,10.6668839 L3.3783006,10.6185162 C3.42954472,10.6076512 3.49975464,10.5701484 3.50229861,10.4828425 C3.52647088,10.4744268 3.56841447,10.4545898 3.5852922,10.4152927 C3.59633431,10.3897048 3.59495746,10.3611022 3.58119814,10.3302208 C3.61912973,10.3174268 3.68658596,10.2874605 3.72816482,10.2288468 L5.33618164,10.3309655 L5.40554356,10.3225947 L3.99423305,10.779733 L3.29679327,10.7360127 C3.29972932,10.7261974 3.30088733,10.7166513 3.29723094,10.7079754 L3.29723094,10.7079754 Z M3.75096025,10.1860417 C3.75496313,10.1755715 3.75861951,10.1648859 3.76084435,10.1531416 L4.01960892,10.1673801 L4.01960892,9.96892972 L4.09244487,9.97458205 L4.09244487,9.89887681 L4.17298568,9.90452913 L4.17298568,9.79745799 C4.19266269,9.78212495 4.23905594,9.74265738 4.27592071,9.68863732 L5.3110246,9.76131902 L5.3110246,10.2853521 L3.75096025,10.1860417 Z M5.33515128,9.71917781 L4.29942735,9.64593089 C4.30325699,9.63795483 4.30837228,9.63094774 4.31153629,9.62262178 L4.32222278,9.59462933 L3.53021845,9.54806496 C3.53449487,9.53557601 3.5383245,9.52287175 3.542993,9.5108314 C3.57981218,9.41467014 3.61792613,9.31513543 3.44660482,9.14648089 C3.26050295,8.9634533 3.35052665,8.68237136 3.35142023,8.6794824 L3.35498544,8.66844691 L3.34786414,8.65911609 C3.34697056,8.65797666 3.25833282,8.54249881 3.30106969,8.42846544 C3.31037934,8.40398102 3.31932427,8.38225097 3.32774034,8.3624499 C3.36247145,8.27926207 3.38744613,8.21923978 3.36055664,8.09631522 C3.34871213,8.04177479 3.33090435,7.97772411 3.30886573,7.94596344 L3.34123523,7.90049364 L5.49500194,8.12128413 L5.49500194,9.69663132 L5.33515128,9.71917781 Z M1.85266646,9.51288598 C1.82341537,9.46057956 1.81717854,9.39438458 1.83597109,9.33568117 C1.8698998,9.22948928 1.98222655,9.15286891 1.98725978,9.14888537 C2.13467325,8.99288126 2.15466029,8.75618352 2.15693071,8.71842062 C2.17033442,8.69016798 2.22661177,8.54581843 2.11899912,8.3021136 C2.06449981,8.17822007 2.07305265,8.10808641 2.0870764,8.06983903 C2.10421856,8.02318493 2.16477234,7.99571285 2.16477234,7.99571285 L2.33209077,7.9314917 L2.56560713,7.91239044 L2.56560713,9.49128154 L2.27118139,9.47392981 L2.26654936,9.47366962 L1.93672688,9.58932691 L1.9381949,9.58411421 C1.90372822,9.57517816 1.87345589,9.54994906 1.85266646,9.51288598 L1.85266646,9.51288598 Z M1.880486,1.18668272 C1.87982037,1.20363968 1.880486,1.22291141 1.88257406,1.24310725 L1.45400179,1.5234804 C1.42207907,1.36296341 1.26842877,1.15860054 1.22479832,1.10340516 L1.23023275,1.09656854 L1.44171049,0.963433914 C1.46975799,0.989542261 1.48529535,1.01692462 1.49349259,1.04070924 C1.49932822,1.07181496 1.49403056,1.09621864 1.49358377,1.09801303 L1.4879305,1.12127727 L1.880486,1.18668272 Z M3.26206216,1.56610609 C3.18454858,1.51458921 3.20516477,1.37966019 3.21375409,1.33755487 C3.34073374,1.30382037 3.37376887,1.19723372 3.37367769,1.11820886 L5.47010021,1.55835433 L5.47010021,2.2306398 L5.42117211,2.26214028 L3.36383918,1.87579057 L3.50933784,1.7561946 L3.27190066,1.70677715 L3.27190066,1.57272738 L3.26206216,1.56610609 Z M3.22706662,1.59558789 L3.22706662,1.71159508 L2.68816447,1.60917141 L2.6837148,1.60833702 L2.63064705,1.6383033 L2.63064705,1.03440197 L2.71559193,0.961460087 L3.32590759,1.08329007 C3.32955486,1.10571992 3.3495966,1.2640029 3.19011067,1.29772843 L3.17653371,1.30070711 L3.17305969,1.31380614 C3.17078926,1.32205136 3.12164232,1.51261538 3.22706662,1.59558789 L3.22706662,1.59558789 Z M3.37220966,1.09280033 C3.3720273,1.09109566 3.37211848,1.08894239 3.37185405,1.08723772 L3.54490782,0.997168411 L5.38675101,1.38745681 C5.38675101,1.38745681 5.45634089,1.44927348 5.46764743,1.5327215 L3.37220966,1.09280033 Z M3.32991047,1.05915555 L2.71443392,0.936275849 L2.70837946,0.935001834 L2.61875695,1.01206183 L2.49569812,0.813961381 L2.69088169,0.661994648 L3.68706923,0.873104414 L3.32991047,1.05915555 Z M2.51666991,1.78750667 C2.52504039,1.80651821 2.54128897,1.84809419 2.55277787,1.88826157 L2.21120206,1.86832591 L2.20688005,1.86814648 L1.94264457,2.045441 C1.91174309,2.0039996 1.86370857,1.96737614 1.83249707,1.94630105 L2.20034232,1.69418054 L2.51484628,1.71591058 L2.51484628,1.77868725 L2.51666991,1.78750667 Z M2.51702552,1.69143513 L2.19348546,1.669095 L2.01859894,1.78373846 L2.01859894,1.65248794 C2.09410651,1.555582 2.06258499,1.45303272 2.06120815,1.44856469 L2.05853653,1.44058864 L2.05118728,1.43625519 C1.93507649,1.36843629 1.91921999,1.25405302 1.92643246,1.16998593 L1.92816492,1.1497901 C1.92816492,1.1497901 1.93208573,1.1212683 1.94703953,1.09783359 L2.16350491,0.960841023 L2.58575829,1.04543745 L2.58575829,1.65008346 L2.51702552,1.69143513 Z M2.56924529,1.01709509 L2.16943172,0.936966689 L2.07330796,0.752880408 L2.45299772,0.830030127 L2.56924529,1.01709509 Z M2.14482178,0.943543121 L1.89589571,1.09962797 C1.89059805,1.11535579 1.88721521,1.12985444 1.88494479,1.14251385 L1.55917077,1.08823361 L2.04579844,0.753669939 L2.14482178,0.943543121 Z M1.88658606,1.27008588 C1.89895942,1.33881991 1.93373612,1.41553001 2.02014903,1.46928091 C2.02509107,1.49232085 2.03421836,1.56412329 1.97883459,1.6307579 L1.97375577,1.63697545 L1.97375577,1.79547376 L1.75109915,1.94827488 L1.78070586,1.96575222 C1.84005603,2.00119138 1.9325234,2.07496765 1.92731693,2.12258174 C1.92722575,2.12306623 1.92722575,2.1235866 1.92713456,2.12402623 L1.45911708,2.40737806 L1.45911708,1.54965155 L1.88658606,1.27008588 Z M1.92260283,2.15571512 C1.91641159,2.22730224 1.93471176,2.33274048 2.03676233,2.38439195 C2.03066228,2.42727782 2.0230942,2.53811718 2.09183609,2.61517718 C2.09237406,2.61605643 2.15145069,2.70687041 2.15145069,2.79693973 L2.15135951,2.81634603 C2.15126833,2.84420391 2.15117714,2.88047747 2.15291871,2.91911962 L1.54056058,3.28868283 L1.53464289,3.2922716 L1.53464289,4.44749869 L2.19322103,4.04161707 L2.19322103,4.21891159 L1.5405697,4.6145024 L1.53465201,4.61805529 L1.53465201,7.40482981 L1.89016038,7.25062009 L1.98534497,7.36158505 C1.95970467,7.53467173 2.00146589,7.60528988 2.03512106,7.66224376 C2.04990162,7.68730239 2.06267618,7.70889785 2.06749057,7.73602003 C2.07782146,7.79476829 2.03311507,7.85426123 2.00431076,7.88584246 L1.4592265,8.12845271 L1.45913532,2.43626771 L1.92260283,2.15571512 Z M1.63027427,4.75372898 L1.63027427,7.21040785 L2.09540129,7.00056313 L1.91294669,7.21382616 L1.55961756,7.36724635 L1.55961756,4.63172853 L2.19321191,4.24779227 L2.19321191,4.41299261 L1.63027427,4.75372898 Z M2.19321191,4.46494015 L2.19321191,5.85125752 L2.0881797,5.98846541 L2.2090137,6.08283228 L2.2090137,6.86769766 L2.16302165,6.92144855 L1.67514479,7.14153923 L1.67514479,4.77847359 L2.19321191,4.46494015 Z M1.98066735,7.20322132 L2.25385687,6.88385612 L2.25385687,6.06157775 L2.15047504,5.98053421 L2.23809155,5.8659715 L2.23809155,3.1453471 C2.24811242,3.15454334 2.25906334,3.16300388 2.2718379,3.16935601 L2.27940598,3.17321395 L2.28577047,3.16769621 C2.2904025,3.16362294 2.30411623,3.14382187 2.31675401,3.05138397 L2.31675401,7.05537271 L1.98066735,7.20322132 Z M2.31676313,7.08222573 L2.31676313,7.21364672 L2.02224621,7.33613165 L1.94486941,7.24592776 L2.31676313,7.08222573 Z M1.6447904,3.41805821 L1.63428626,3.42462567 L1.63428626,4.2348637 L2.19322103,3.88702156 L2.19322103,4.01275433 L1.55962668,4.40317731 L1.55962668,3.30613325 L2.15457822,2.94686086 C2.15796106,2.99684354 2.16477234,3.04862958 2.17928846,3.09103097 L1.6447904,3.41805821 Z M2.19321191,3.13466152 L2.19321191,3.83471514 L1.67915678,4.15469044 L1.67915678,3.4491101 L2.19321191,3.13466152 Z M2.27273148,3.14166861 C2.25385687,3.12979873 2.23983312,3.11240213 2.22816186,3.0925562 C2.19579235,3.02149843 2.19597472,2.88963782 2.19633033,2.8165165 L2.19633033,2.79693075 C2.19633033,2.72552308 2.16578445,2.65687876 2.14525945,2.6188467 L2.31667195,2.49960064 C2.31560512,2.98733328 2.28359122,3.11319167 2.27273148,3.14166861 L2.27273148,3.14166861 Z M2.08217083,7.99996555 C2.06966069,8.01135992 2.05625698,8.02795801 2.04624523,8.05126711 C2.04340036,8.05775382 2.04277121,8.06555044 2.04068315,8.07255752 L1.45921738,8.32410383 L1.45921738,8.15553003 L1.96201157,7.93167114 L2.08217083,7.99996555 Z M2.0329327,8.10278399 C2.0254558,8.16188217 2.04023636,8.23438442 2.07790352,8.31980627 C2.18622739,8.56535034 2.11570746,8.70093431 2.1150783,8.70207375 L2.11236109,8.71188905 C2.11226991,8.71438325 2.10029775,8.96435946 1.95809075,9.11562638 C1.95288428,9.11899983 1.83186791,9.20140711 1.79313392,9.3224027 C1.7706941,9.39241076 1.77826219,9.47152533 1.81334891,9.53434686 C1.83142112,9.56645743 1.85586694,9.5911213 1.88382325,9.60789883 L1.45921738,9.75693174 L1.45921738,8.35094787 L2.0329327,8.10278399 Z M2.32816084,7.90708802 L2.13716251,7.9800299 L2.0357411,7.92242107 L2.33239167,7.79896716 L2.56559802,7.7767975 L2.56559802,7.8877176 L2.32816084,7.90708802 Z M2.32806966,7.77474292 L2.06329621,7.88439798 C2.09290291,7.84431135 2.1221996,7.78776121 2.11169546,7.7284836 C2.10559541,7.69348405 2.09019482,7.66754617 2.07398271,7.63999334 C2.04170438,7.58545292 2.00510404,7.52346578 2.03120025,7.35909085 L2.33283846,7.23358237 L2.56559802,7.2540384 L2.56559802,7.75222335 L2.32806966,7.77474292 Z M2.34178339,7.20970804 L2.34178339,7.07582874 L2.56559802,7.09549523 L2.56559802,7.22946425 L2.34178339,7.20970804 Z M2.34178339,7.05125459 L2.34178339,2.48892403 L2.56559802,2.50491203 L2.56559802,7.07092109 L2.34178339,7.05125459 Z M2.33016684,2.46347063 L2.32562599,2.46321045 L2.13306846,2.59730507 C2.13030565,2.59283705 2.12821759,2.58950846 2.12750637,2.58853949 C2.05573725,2.50775613 2.08347472,2.37760019 2.08373915,2.37624542 L2.08774203,2.3582836 L2.07059987,2.35123165 C1.93480295,2.29476226 1.96993526,2.13661386 1.97149447,2.12986696 L1.97203244,2.12719332 C1.97421168,2.10681804 1.96735482,2.0862723 1.9559571,2.0662559 L2.21391928,1.89312436 L2.55985357,1.91327534 C2.56341877,1.92891343 2.56559802,1.94333134 2.56559802,1.95520122 L2.56559802,2.48024816 L2.33016684,2.46347063 Z M2.55968032,1.77423717 L2.55968032,1.71755245 L2.63064705,1.67483704 L2.63064705,1.66655594 L2.68799123,1.63426592 L3.22706662,1.73673446 L3.22706662,1.74264697 L3.40952122,1.78049959 L3.23334904,1.92550409 L2.69739206,1.82780863 L2.59743867,1.87937037 C2.58447263,1.83320077 2.5656892,1.78825134 2.55968032,1.77423717 L2.55968032,1.77423717 Z M2.70121257,1.85344146 L3.22858023,1.94964759 L3.23023062,1.95232122 C3.23361346,1.95797355 3.31259506,2.09185285 3.19603748,2.17482535 L3.18401973,2.18354608 L3.18740257,2.19791913 C3.20253874,2.26161991 3.22942822,2.44811067 3.15703906,2.46878202 L3.13780884,2.47421005 L3.13790002,2.47469453 L2.72758232,2.42676642 L2.72401712,2.4263268 L2.61048677,2.48086723 L2.61048677,1.95521019 C2.61048677,1.93996686 2.60776956,1.92226522 2.60362991,1.90395349 L2.70121257,1.85344146 Z M3.15089341,2.76645307 L4.22615373,2.94642123 L4.22615373,4.05455461 L3.15089341,3.89566153 L3.15089341,2.76645307 Z M3.32269799,7.80356977 L2.73856972,7.76129398 L2.73856972,7.20260226 L3.28989081,7.24343356 L3.29251685,7.24659169 C3.29305482,7.24738122 3.35204027,7.31927338 3.33654849,7.42151761 C3.33298329,7.44495232 3.32608995,7.47347412 3.3187863,7.50379031 C3.29389369,7.60581922 3.26487055,7.72857332 3.32269799,7.80356977 L3.32269799,7.80356977 Z M3.33712294,7.82929232 L3.2622354,7.9342102 L2.7385606,7.89670748 L2.7385606,7.78578738 L3.33712294,7.82929232 Z M3.28904282,7.21868895 L2.73856972,7.17794737 L2.73856972,7.0369264 L3.30618499,7.08713338 L3.28904282,7.21868895 Z M2.86834865,3.09383022 C2.8942169,3.12055763 2.92315798,3.13422189 2.9542327,3.13422189 C2.98740461,3.13422189 3.01687454,3.12138305 3.04184921,3.09624367 C3.0715015,3.06645683 3.0916253,3.02097806 3.10623261,2.97156958 L3.10605025,5.78739524 L3.15235232,5.83046056 L3.08770449,5.99123774 L3.08614528,6.89132078 L3.27728038,7.05998429 L2.7385606,7.01232534 L2.7385606,2.70338033 C2.7576267,2.85257473 2.7963151,3.01900423 2.86834865,3.09383022 L2.86834865,3.09383022 Z M2.74769701,2.45396935 L3.14189378,2.49978905 C3.14745586,2.53773139 3.15102107,2.62766612 3.11206824,2.66998676 L3.10632379,2.67638376 L3.10623261,2.84977549 C3.09519051,2.93484743 3.07213065,3.0307485 3.02399583,3.07911623 C3.00356201,3.09966198 2.98076658,3.10960289 2.9542327,3.10960289 C2.92987807,3.10960289 2.90770268,3.09887245 2.88646645,3.07688222 C2.77725812,2.96353969 2.74360295,2.59463143 2.74769701,2.45396935 L2.74769701,2.45396935 Z M3.29095764,7.01270216 L3.13103404,6.87155559 L3.13103404,6.00362799 L3.2054292,5.81879703 L3.15089341,5.76846445 L3.15089341,4.11277353 L4.23487982,4.26566437 L4.23487982,7.10790343 L3.29095764,7.01270216 Z M2.61047765,7.75196316 L2.61047765,7.24773112 L2.71359505,7.20506057 L2.71359505,7.75949959 L2.61047765,7.75196316 Z M2.71359505,7.78390327 L2.71359505,7.8949131 L2.61047765,7.88746639 L2.61047765,7.77645656 L2.71359505,7.78390327 Z M2.61047765,7.2211024 L2.61047765,7.08831768 L2.71359505,7.03977948 L2.71359505,7.17838699 L2.61047765,7.2211024 Z M2.61047765,7.06093532 L2.61047765,2.50807015 L2.61066002,2.50807015 L2.71359505,2.45860784 L2.71359505,7.01239712 L2.61047765,7.06093532 Z M2.61046854,7.91221997 L3.24064357,7.95733986 L3.26824428,7.96641049 C3.26909227,7.96720002 3.29068409,7.98669605 3.31668,8.10571782 C3.34054225,8.21510372 3.32015402,8.26426098 3.28605206,8.34556471 C3.27754481,8.36593999 3.26841752,8.38797507 3.25893462,8.41311445 C3.21472061,8.53091603 3.28257804,8.64367538 3.30537347,8.67671007 C3.28912489,8.7337447 3.22839787,8.99440649 3.41476417,9.17779296 C3.56569725,9.32626064 3.53568935,9.40450493 3.50095824,9.49513948 C3.49481259,9.51117234 3.48920491,9.52821902 3.48381607,9.5453016 L2.61046854,9.49387443 L2.61046854,7.91221997 L2.61046854,7.91221997 Z M3.35760235,7.87748062 L3.40345763,7.81325946 L3.38359826,7.80077052 C3.36000043,7.78604757 3.34713469,7.76344725 3.34018664,7.736989 L5.49497458,7.95786921 L5.49497458,8.09656644 L3.35760235,7.87748062 Z M3.33516253,7.71179579 C3.32897129,7.65256303 3.34665143,7.5786163 3.36245322,7.51404524 C3.3700213,7.48289466 3.37714259,7.45345772 3.38106341,7.42800433 C3.396464,7.32632532 3.35038988,7.25062009 3.33324772,7.22657529 L3.35395508,7.06821156 L3.32252475,7.04047929 L5.34748817,7.2447973 L5.36124749,7.24624178 L5.36124749,4.39970517 L3.15089341,4.08792125 L3.15089341,3.92057661 L5.36124749,4.24725395 L5.36124749,3.11147802 L3.15089341,2.74152005 L3.15089341,2.72031935 L3.15111225,2.69298185 C3.19639309,2.63616255 3.19194342,2.54267493 3.187667,2.50381745 C3.27965111,2.4544 3.2464792,2.26006776 3.2342335,2.20175912 C3.33071287,2.12351483 3.30921222,2.0096609 3.27800072,1.94631002 L3.33899216,1.8961479 L5.41550972,2.28599667 L5.41550972,2.38565699 L5.42908668,2.39139903 C5.42970672,2.39165922 5.4949837,2.41992083 5.4949837,2.4757263 L5.4949837,7.9331874 L3.33516253,7.71179579 Z M4.25985449,7.11039763 L4.25985449,4.26916343 L5.33627282,4.42104941 L5.33627282,7.21895811 L4.25985449,7.11039763 Z M4.2511284,4.05822413 L4.2511284,2.9506201 L5.33627282,3.13220321 L5.33627282,4.21874112 L4.2511284,4.05822413 Z M6.09363722,1.78409733 L6.07819104,1.78777583 L6.07494497,1.80301916 C6.07293897,1.81261016 6.02770373,2.03305972 6.13527079,2.13569872 L6.13527079,2.23746744 L5.61582682,2.1523955 L5.61110361,2.15169569 L5.51497985,2.21351236 L5.51497985,1.55283659 L5.61582682,1.50105952 L6.19590663,1.6025232 C6.19630783,1.63230107 6.19180345,1.7609587 6.09363722,1.78409733 L6.09363722,1.78409733 Z M6.1975479,1.57793111 L5.61590889,1.47607266 L5.61172365,1.47537285 L5.51186144,1.52671927 C5.50064609,1.44541554 5.45544731,1.39498426 5.4290958,1.37264413 L5.61582682,1.25423246 L6.52225509,1.4304324 L6.1975479,1.57793111 Z M6.82318208,1.09292593 L6.55845423,1.25782123 L6.55845423,1.41238086 L5.62566533,1.23096822 C5.62940378,1.04636156 5.57936326,0.865738451 5.55621222,0.792706853 L6.82318208,1.09292593 Z M5.42833899,0.839020011 L5.52949598,0.791181623 C5.55055895,0.855313056 5.60554153,1.04303297 5.60077272,1.23447624 L5.41831812,1.350304 C5.39952557,1.15159346 5.32869562,0.960939714 5.30452335,0.900827711 L5.42833899,0.839020011 Z M5.35888588,0.824117618 L5.24708799,0.879842342 L5.2552761,0.898853884 C5.25629734,0.901177617 5.35385265,1.12968398 5.37445972,1.36046024 L3.57910096,0.97941294 L3.74895425,0.890922689 C3.75652233,0.886984007 3.75919396,0.879268138 3.75928514,0.871381802 L3.75928514,0.661537079 L3.99872831,0.533570288 L5.35888588,0.824117618 Z M2.57846376,0.124369043 L3.96907602,0.437687158 L4.01475806,0.47186128 L3.71596471,0.635267237 L3.71596471,0.854173619 L2.7002734,0.638945733 L2.70009104,0.499764016 C2.69884185,0.49187768 2.6679039,0.304992154 2.56991091,0.146359269 C2.56817846,0.143290866 2.56506004,0.141317039 2.56158602,0.140617227 C2.55905117,0.140267322 2.55668956,0.141317039 2.55437355,0.142411616 L2.57846376,0.124369043 Z M2.36711367,0.313623161 L2.55575039,0.170852668 C2.64546408,0.322953979 2.67511637,0.501648123 2.67528961,0.501648123 L2.67528961,0.642974134 L2.48637935,0.789997327 C2.46185147,0.551989683 2.38197629,0.36895312 2.3606033,0.32383323 L2.36711367,0.313623161 Z M1.32525321,0.824207337 L1.25321966,0.813342317 L1.25878175,0.79144181 L1.17699175,0.779966697 L1.23388914,0.717719372 L1.9590664,0.199598766 C2.19988641,0.231449156 2.30620429,0.245508187 2.35361878,0.251815461 L2.31595161,0.310734196 C2.31167519,0.317481095 2.3128332,0.325017526 2.31621604,0.331629846 L2.31492126,0.332374517 C2.31594249,0.334429092 2.41696271,0.537177009 2.44261213,0.802916922 L2.05277384,0.72353319 C2.04925423,0.72260908 2.04587139,0.72353319 2.04310858,0.725507017 L1.54116238,1.07067552 C1.54125357,1.03198851 1.53012028,0.970880625 1.47032331,0.920198131 L1.45077395,0.908103955 L1.45091073,0.908014236 L1.32525321,0.824207337 Z M1.31340871,0.992700385 L1.4085933,0.934086696 L1.42034662,0.94127322 L1.42417625,0.945436201 L1.27730075,1.03782925 L1.31340871,0.992700385 Z M0.438629617,1.78247341 L0.376607818,1.66721089 L0.251324148,1.54437605 L0.141532251,1.48138405 L0.229823501,1.3763316 L0.81810054,0.972683985 L1.25606453,0.992879823 L1.16750885,1.1035846 L1.17881539,1.11729373 C1.18090345,1.11983279 1.38023578,1.36423742 1.41152935,1.53417495 L0.925521713,1.47600089 L0.920980864,1.47547154 L0.439249653,1.78248239 L0.438629617,1.78248239 L0.438629617,1.78247341 Z M0.795213931,2.03883765 C0.777542916,2.01631808 0.762397634,1.99691177 0.757774721,1.98390246 C0.741790567,1.93799303 0.788940629,1.8840627 0.78938742,1.88357821 L0.811116021,1.85900407 L0.651903637,1.78492275 L0.484320772,1.78303865 L0.927099157,1.50096083 L1.41435598,1.55926947 L1.41435598,2.42307895 L1.00323588,2.38855493 L0.998385018,2.38816016 L0.887617476,2.47126725 L0.887617476,2.37856916 L0.899106372,2.35714416 L0.901732405,2.34951801 C0.925175223,2.20426229 0.847041615,2.10468272 0.795213931,2.03883765 L0.795213931,2.03883765 Z M0.948417441,3.23809005 C0.910659094,3.19332007 0.91885633,3.13071387 0.91925753,3.12659575 C0.91925753,3.12343762 0.918500721,3.04743631 0.851938073,2.94632254 C0.799271517,2.86611339 0.833063459,2.81274829 0.834440303,2.81073857 L0.8447256,2.79575543 L0.738453317,2.66424472 L0.714901081,2.64900139 L0.88759924,2.51758041 L1.02063336,2.41476197 L1.41434686,2.44775179 L1.41434686,3.13637516 L1.17490369,3.08735248 L0.948417441,3.23809005 Z M1.19725233,7.38700256 L1.19725233,3.11695988 L1.41434686,3.16137996 L1.41434686,7.40311616 L1.19725233,7.38700256 Z M1.41433774,7.42783386 L1.41433774,7.5680653 L1.19724321,7.55198758 L1.19724321,7.41166642 L1.41433774,7.42783386 Z M0.978151796,7.49454921 L1.06585948,7.43794524 L1.06585948,6.55297095 L0.996853165,6.59252823 L0.996853165,6.51840206 L1.06394467,6.48296289 L1.06394467,5.79337953 L1.04141367,5.79114551 C0.98825473,5.78610328 0.994710395,5.69406911 0.994801577,5.69310014 L0.995558385,5.68293494 L0.988965947,5.67522804 C0.9524112,5.63304197 0.955529614,5.57482305 0.966571719,5.54604106 C0.974139801,5.52593494 0.999205653,5.52098243 0.999205653,5.52098243 L1.01991302,5.51742954 L1.01991302,5.49679408 C1.01991302,5.46472836 1.02882147,5.4520241 1.03282435,5.45153961 L1.06011504,5.45407867 L1.06011504,5.35152042 C1.06011504,5.31357808 1.03585158,5.29544579 1.01915621,5.289623 C1.01216257,5.28467049 1.00842412,5.27963723 1.0077585,5.27472958 C1.00686492,5.26710343 1.01270055,5.25751242 1.01835381,5.25203954 C1.02757228,5.24287919 1.05508181,5.22654128 1.07013591,5.21848448 L1.08318401,5.21147739 L1.08318401,5.05731254 L1.08318401,3.81416042 C1.08318401,3.51333125 0.990889881,3.41624588 0.986969068,3.4123072 L0.978060615,3.40648441 C0.965012512,3.40148704 0.959359246,3.36622731 0.960426072,3.34252344 L0.960426072,3.2597214 L1.17225942,3.11865558 L1.17225942,7.39110274 L0.978142678,7.49869425 L0.978142678,7.49454921 L0.978151796,7.49454921 Z M0.832972277,7.64581613 L0.978160914,7.52696483 L1.17227766,7.41937332 L1.17227766,7.55522645 L0.832972277,7.6980418 L0.832972277,7.64581613 Z M0.752385882,7.80821723 L0.752385882,7.77277807 L1.18687585,7.57586191 L1.41433774,7.59281888 L1.41433774,7.75333587 L1.18567225,7.73791311 L1.1831374,7.73777853 L0.869344662,7.84278612 L0.752385882,7.80821723 Z M0.894811713,8.13249009 C0.787199059,7.97618094 0.864803812,7.88225369 0.868095472,7.87857519 L0.880031158,7.86512625 L1.18639259,7.762568 L1.41434686,7.77799076 L1.41434686,8.25637465 L1.18305534,8.2342947 L0.899088135,8.34171575 L0.899088135,8.13884222 L0.894811713,8.13249009 Z M0.904741401,8.36572466 L1.18647465,8.25927258 L1.41433774,8.28095776 L1.41433774,8.39959374 L1.18255384,8.38566031 L0.974148919,8.47144104 L0.904741401,8.36572466 Z M0.575766909,9.97432186 C0.606577209,9.9525021 0.63573712,9.93195636 0.645128836,9.89879606 C0.647891642,9.88898076 0.650070885,9.87964994 0.652158946,9.87062417 C0.663912268,9.8198071 0.672419522,9.78313878 0.798149982,9.71361521 C0.96417364,9.62201169 0.981717001,9.51165682 0.9825194,9.50355516 L0.9825194,9.29603417 L0.95754473,9.29603417 C0.880477948,9.29603417 0.858703756,9.22625041 0.858439329,9.22541602 C0.830437426,9.08018722 0.980786948,8.98578446 0.982254973,8.98482446 L0.994008296,8.97763793 L0.994008296,8.78304551 L0.992275843,8.77397488 C0.93091967,8.62191843 0.98007573,8.50218788 0.980613702,8.50104844 L0.983422099,8.49413108 L1.18688497,8.41058436 L1.41434686,8.42424863 L1.41434686,9.77262366 L0.482405956,10.0996509 C0.493976915,10.0354297 0.534443358,10.0034089 0.575766909,9.97432186 L0.575766909,9.97432186 Z M0.418378159,10.6818671 L0.29229209,10.4038176 L0.29229209,10.228147 L0.477372726,10.149822 L2.27300503,9.51836783 L4.25669961,9.63502998 C4.21520281,9.71287951 4.13822721,9.76790442 4.13751599,9.76860423 L4.12812428,9.77526141 L4.12812428,9.85713934 L4.04762906,9.85148702 L4.04762906,9.92679749 L3.97474752,9.92114517 L3.97474752,10.1205645 L3.72052379,10.1065862 L3.71879134,10.1281817 C3.71633855,10.1596822 3.70458523,10.1856111 3.68833665,10.2069912 L2.40916667,10.137997 L2.40489025,10.1377816 L0.631834543,10.7086034 C0.572110523,10.681257 0.470825879,10.6804674 0.418378159,10.6818671 L0.418378159,10.6818671 Z M2.02999665,12.1253536 C2.01699414,12.1337693 2.00395515,12.1425259 1.9922839,12.1527809 C1.94931907,12.1912436 1.7952311,12.4076557 1.77781539,12.4322747 L1.77140532,12.4412108 L1.77389458,12.4518156 C1.81508136,12.6302047 1.78462667,12.6809321 1.76966375,12.6944259 C1.75283161,12.7093193 1.73048297,12.7025724 1.72972616,12.7023122 L1.70456913,12.6937261 L1.69744784,12.7190449 C1.67514479,12.7988593 1.42782352,12.7611861 1.29469822,12.7409454 L1.25743226,12.7352482 C1.2288012,12.7310404 1.20325208,12.7198255 1.18010105,12.7054614 C1.19653199,12.6528051 1.23455477,12.5132286 1.20017926,12.4351637 L1.36793537,12.3940722 L1.37238504,12.3931122 L1.71996972,11.9035134 C1.73127625,11.8816937 1.76974581,11.825619 1.81115143,11.825619 L1.81150704,11.825619 C1.83995573,11.8257088 1.86769321,11.8519068 1.89285024,11.9008846 C1.89405384,11.9055321 1.92495532,12.0102347 2.08372091,12.0422107 C2.08591839,12.0880214 2.063743,12.1035339 2.02999665,12.1253536 L2.02999665,12.1253536 Z M3.07012466,11.2350769 L3.06785423,11.2338478 C2.98780581,11.3850698 2.84800601,11.4786472 2.76439238,11.4786472 C2.63812395,11.4786472 2.59663627,11.62803 2.56933647,11.7267752 C2.56105717,11.7568312 2.55384469,11.7827601 2.54635868,11.7981828 C2.54217344,11.8068587 2.53789701,11.8164946 2.53340175,11.8270097 C2.49173171,11.9221571 2.44853894,11.9995311 2.32744051,11.9806901 C2.15482441,11.9533526 2.09877501,12.0087274 2.09035894,12.0185427 C1.9460183,11.9903259 1.91809846,11.8986865 1.91610158,11.8923792 C1.88538246,11.8318366 1.85029574,11.8011705 1.81160734,11.8009911 L1.81116055,11.8009911 C1.74615711,11.8009911 1.69967267,11.8884316 1.69856025,11.8908002 L1.35743124,12.3713732 L1.16193765,12.4193013 L1.17115612,12.4335847 C1.21055574,12.4947374 1.17628053,12.6313352 1.15869158,12.6902988 C1.09337812,12.6402713 1.05393292,12.5654453 1.04480563,12.5466939 L1.04480563,11.0899827 L1.01992214,11.0899827 C0.867521027,11.0899827 0.727502393,10.8651548 0.674607883,10.7463484 C0.673987847,10.744859 0.67242864,10.7437196 0.67158065,10.74232 L2.41089001,10.1822735 L3.64349349,10.2487735 C3.59634342,10.2820684 3.54465251,10.2947727 3.54372246,10.294988 L3.51291216,10.3017798 L3.52943428,10.3281483 C3.54702324,10.3559703 3.55182851,10.3795755 3.543996,10.3979769 C3.53179589,10.4266692 3.48977024,10.4415626 3.47471614,10.4449809 L3.45575034,10.4491887 L3.45712719,10.4680298 C3.46402964,10.5646307 3.36518867,10.5766262 3.35388214,10.5776849 L3.33349391,10.5794344 L3.33349391,10.622715 L3.24048856,10.622715 L3.24048856,10.7070872 L3.24181982,10.7252195 L3.25321753,10.7276688 C3.2485855,10.7383544 3.23590212,10.7567558 3.22699367,10.7697293 C3.20464503,10.8021449 3.17944241,10.8388581 3.17543953,10.8743421 C3.17125429,10.9114949 3.15838855,10.9218306 3.15558015,10.9227098 L3.13176349,10.9227098 L3.13314034,10.9460189 C3.13895773,11.047662 3.11781269,11.1449179 3.07012466,11.2350769 L3.07012466,11.2350769 Z M5.10648579,12.1877355 C5.10203612,12.1999105 5.06004694,12.2362737 5.02634618,12.2653608 C4.93717047,12.3427258 4.82608379,12.4390127 4.8178045,12.5329399 C4.81562525,12.5568591 4.81442165,12.5813884 4.81343689,12.605487 C4.80742802,12.7309507 4.79811836,12.7903539 4.73356171,12.7940413 C4.73071684,12.7945707 4.49430091,12.8454685 4.25712816,12.7811576 C4.27479917,12.7522411 4.29853377,12.7029133 4.29065567,12.6544649 C4.28647043,12.6286167 4.27400589,12.606447 4.25338971,12.5883147 L4.42262296,12.5064817 L4.86860183,11.9158588 C4.87964393,11.9089414 4.94308817,11.8711785 4.99580031,11.8859822 C5.02184181,11.8936084 5.04183796,11.9135799 5.05541491,11.9454752 C5.09481453,12.0386129 5.15269668,12.0871511 5.20786162,12.1070419 C5.16529799,12.1256138 5.11823911,12.153041 5.10648579,12.1877355 L5.10648579,12.1877355 Z M6.65484241,10.4907288 L6.6339618,10.4952417 L6.6351654,10.5162271 C6.63542982,10.5201658 6.64006186,10.6126485 6.55836304,10.6467329 L6.54188651,10.6536503 L6.54321776,10.6711725 C6.54321776,10.671962 6.5478042,10.7529159 6.41757848,10.7779745 L6.39740909,10.7818324 L6.39740909,10.833439 L6.31535467,10.833439 L6.32568556,10.8655047 C6.32715358,10.869883 6.3598787,10.9744151 6.28080592,11.0134879 L6.26642656,11.0205847 L6.2670466,11.0365279 C6.26731102,11.0392464 6.27862667,11.3173406 6.12034434,11.4803967 C6.0438976,11.5593408 5.93904775,11.5992929 5.8089588,11.5992929 L5.79680428,11.6023613 C5.79252786,11.6048106 5.69124322,11.6610647 5.68549877,11.7583205 C5.68109469,11.8318276 5.52726203,12.0697994 5.27842714,12.0812745 C5.27259151,12.083024 5.26102055,12.0866218 5.24690562,12.0915294 C5.19036385,12.083033 5.12233317,12.0400125 5.0783927,11.9360995 C5.06178852,11.896937 5.03636705,11.8721385 5.00270277,11.8625027 C4.93298523,11.8421723 4.8560917,11.8943979 4.85280004,11.8967575 L4.40886364,12.4857206 L4.20495398,12.5843761 L4.2230262,12.5962011 C4.24747202,12.6122339 4.26194255,12.6331744 4.26594543,12.6581434 C4.27306672,12.7020431 4.24809205,12.7491727 4.23224467,12.7738814 C4.20178998,12.7645954 4.17133529,12.753551 4.14160093,12.739797 L4.02214377,12.6746966 L4.02214377,11.2492616 L3.12510723,11.2214844 C3.16219083,11.1393912 3.18138458,11.0502819 3.17871295,10.9601228 C3.19478829,10.9510971 3.21437412,10.9295464 3.22002739,10.8794292 C3.22283578,10.8546307 3.24580446,10.8213359 3.2642414,10.794438 C3.26797985,10.78901 3.27118944,10.7841023 3.27466347,10.7790152 L4.00006868,10.8244043 L5.63470144,10.294979 L5.6518436,10.2929244 L6.81850446,10.385488 C6.79041138,10.4195903 6.73498202,10.4735117 6.65484241,10.4907288 L6.65484241,10.4907288 Z M7.2001911,10.0053827 L7.19115499,10.012659 L7.19115499,10.1354579 L7.13265281,10.1354579 L7.13265281,10.2297799 L7.0607925,10.2297799 L7.0607925,10.357962 L6.86364853,10.3423688 L6.83876504,10.3425483 L6.83876504,10.3427277 L5.65095002,10.2488902 L5.35585865,10.284419 L5.35585865,9.76038593 L5.64538793,9.71938416 L6.45987768,9.80774881 L6.45961325,9.81024301 L7.258748,9.89693887 C7.25308561,9.9255145 7.23812269,9.97449233 7.2001911,10.0053827 L7.2001911,10.0053827 Z" id="Shape"></path>
                                <path d="M4.46937183,4.05576986 L5.4971496,4.17393586 L5.4971496,3.29139156 L4.46937183,3.15432801 L4.46937183,4.05576986 Z M4.53363323,3.21411225 L5.4328882,3.33407996 L5.4328882,4.11545172 L4.53363323,4.01228297 L4.53363323,3.21411225 Z" id="Shape"></path>
                                <path d="M3.3076986,3.88598509 L4.33547638,4.00408805 L4.33547638,3.12158117 L3.3076986,2.9844802 L3.3076986,3.88598509 Z M3.37196001,3.04425844 L4.27121497,3.16426529 L4.27121497,3.94566097 L3.37196001,3.84250257 L3.37196001,3.04425844 Z" id="Shape"></path>
                                <path d="M4.47756906,6.98304093 L5.50534684,7.05326431 L5.50534684,4.57003746 L4.47756906,4.47059247 L4.47756906,6.98304093 Z M4.54231998,4.52149926 L5.44058276,4.60841942 L5.44058276,7.00429545 L4.54231998,6.94309785 L4.54231998,4.52149926 Z" id="Shape"></path>
                                <path d="M6.27149976,12.1229197 C6.2874798,12.1336418 6.30627985,12.138848 6.32671732,12.138848 C6.51016939,12.138848 6.85160249,11.6328855 6.93984142,11.4177128 C6.97049763,11.3426866 6.9491808,11.290202 6.92622655,11.2591334 C6.83768439,11.1401215 6.57236115,11.1280486 6.49106611,11.1310598 C6.43184597,11.1236303 6.37705293,11.1192402 6.32732377,11.1192402 C6.06776183,11.1192402 5.97552031,11.2283462 5.94398475,11.318766 C5.8511671,11.5872957 6.1717079,12.0566738 6.27149976,12.1229197 M6.02321785,11.3426866 C6.05681536,11.2443026 6.15660722,11.1964896 6.32732377,11.1964896 C6.37308066,11.1964896 6.42429562,11.200345 6.4795435,11.2077464 L6.49139966,11.2080278 C6.60141026,11.2080278 6.80217656,11.2278115 6.85800057,11.3031191 C6.87531481,11.3261955 6.87680062,11.3547876 6.86185155,11.390781 C6.76251453,11.6334483 6.43648533,12.0621615 6.32677796,12.0621615 L6.31953085,12.0602478 C6.250941,12.0146299 5.94104345,11.5801476 6.02321785,11.3426866" id="Shape"></path>
                            </g>
                        </g>
                    </g>
                </g>
            </g>
        </g>
    </g>
</svg>